# xmcd
#
# Track frame offsets:
#	150
#	18234
#	44093
#	59721
#	81453
#	104245
#	129315
#	150580
#	172203
#	191163
#	215542
#	240857
#	264118
#
# Disc length: 3813 seconds
#
# Revision: 0
# Processed by: cddbd v1.5.1PL0 Copyright (c) Steve Scherf et al.
# Submitted via: dBpowerAMP V4.0
#
DISCID=bc0ee30d
DTITLE=The Blues Crusaders - Volume One
DYEAR=1998
DGENRE=Blues
TTITLE0=Rock Me Low
TTITLE1=Nighttime Is The Right Time
TTITLE2=Close To You
TTITLE3=I Like The Life
TTITLE4=Sentimental Fool
TTITLE5=Cryion' Shame
TTITLE6=Checkin' On My Baby
TTITLE7=I'd Rather Go Blind
TTITLE8=(It's) The Last Time
TTITLE9=Illusion
TTITLE10=Ain't No Sunshine When You're Gone
TTITLE11=Meet Me With Your Black Drawers On-Rock Me Baby
TTITLE12=Eric's Tune
EXTD=
EXTT0=
EXTT1=
EXTT2=
EXTT3=
EXTT4=
EXTT5=
EXTT6=
EXTT7=
EXTT8=
EXTT9=
EXTT10=
EXTT11=
EXTT12=
PLAYORDER=
